# File created by Blade
# Date/Time:  Tue Sep 30 19:36:36 2014
#---------------------------------------------------------
:version 1.10
:name HOM
:units
  mass 1.0
  length 1.000000
  angle deg
:documentation
     Acclaim Skeleton File
:root
   axis xyz
   order TX TY TZ RX RY RZ
   position 0.000000 0.000000 0.000000
   orientation 0 0 0
:bonedata
   begin
      id 1
      name Spine_dum
      direction 0.000000 1.000000 0.000000
      length 3.241213
      axis 0.0 0.0 0.0 xyz
   end
   begin
      id 2
      name LeftUpLeg_dum
      direction 1.000000 0.000000 0.000000
      length 3.434019
      axis 0.0 0.0 0.0 xyz
   end
   begin
      id 3
      name RightUpLeg_dum
      direction -1.000000 0.000000 0.000000
      length 3.434019
      axis 0.0 0.0 0.0 xyz
   end
   begin
      id 4
      name Spine
      direction 0.000000 1.000000 0.000000
      length 0.000000
      axis 0.0 0.0 0.0 xyz
      dof rx ry rz
   end
   begin
      id 5
      name Spine_dum1
      direction 0.000000 1.000000 0.000000
      length 18.382958
      axis 0.0 0.0 0.0 xyz
   end
   begin
      id 6
      name Spine_dum2
      direction 0.000000 1.000000 0.000000
      length 12.828261
      axis 0.0 0.0 0.0 xyz
   end
   begin
      id 7
      name Spine_dum3
      direction 0.000000 1.000000 0.000000
      length 12.828261
      axis 0.0 0.0 0.0 xyz
   end
   begin
      id 8
      name Head
      direction 0.000000 1.000000 0.000000
      length 4.527550
      axis 0.0 0.0 0.0 xyz
      dof rx ry rz
   end
   begin
      id 9
      name LeftShoulder
      direction 1.000000 0.000000 0.000000
      length 7.748055
      axis 0.0 0.0 -90.0 xyz
      dof rx ry rz
   end
   begin
      id 10
      name LeftArm
      direction 1.000000 0.000000 0.000000
      length 10.635614
      axis 0.0 0.0 -90.0 xyz
      dof rx ry rz
   end
   begin
      id 11
      name LeftForeArm
      direction 1.000000 0.000000 0.000000
      length 8.346755
      axis 0.0 0.0 -90.0 xyz
      dof ry rz rx
   end
   begin
      id 12
      name LeftHand
      direction 0.000000 0.000000 0.000000
      length 0.000000
      axis 0.0 0.0 -90.0 xyz
      dof rx ry rz
   end
   begin
      id 13
      name LeftHand_dum1
      direction 0.000000 0.000000 0.000000
      length 0.000000
      axis 0.0 0.0 -90.0 xyz
   end
   begin
      id 14
      name LeftHand_dum2
      direction 1.000000 0.000000 0.000000
      length 3.937000
      axis 0.0 0.0 -90.0 xyz
   end
   begin
      id 15
      name LeftHandThumb1
      direction 0.000000 0.000000 1.000000
      length 3.937000
      axis 0.0 0.0 -90.0 xyz
      dof rx rz ry
   end
   begin
      id 16
      name RightShoulder
      direction -1.000000 0.000000 0.000000
      length 7.748055
      axis 0.0 0.0 90.0 xyz
      dof rx ry rz
   end
   begin
      id 17
      name RightArm
      direction -1.000000 0.000000 0.000000
      length 10.635614
      axis 0.0 0.0 90.0 xyz
      dof rx ry rz
   end
   begin
      id 18
      name RightForeArm
      direction -1.000000 0.000000 0.000000
      length 8.346755
      axis 0.0 0.0 90.0 xyz
      dof ry rz rx
   end
   begin
      id 19
      name RightHand
      direction 0.000000 0.000000 0.000000
      length 0.000000
      axis 0.0 0.0 90.0 xyz
      dof rx ry rz
   end
   begin
      id 20
      name RightHand_dum1
      direction 0.000000 0.000000 0.000000
      length 0.000000
      axis 0.0 0.0 90.0 xyz
   end
   begin
      id 21
      name RightHand_dum2
      direction -1.000000 0.000000 0.000000
      length 3.937000
      axis 0.0 0.0 90.0 xyz
   end
   begin
      id 22
      name RightHandThumb1
      direction 0.000000 0.000000 1.000000
      length 3.937000
      axis 0.0 0.0 90.0 xyz
      dof rx rz ry
   end
   begin
      id 23
      name LeftUpLeg
      direction 0.000000 -1.000000 0.000000
      length 15.713025
      axis 0.0 0.0 0.0 xyz
      dof rx ry rz
   end
   begin
      id 24
      name LeftLeg
      direction 0.000000 -1.000000 0.000000
      length 14.435119
      axis 0.0 0.0 0.0 xyz
      dof rx ry rz
   end
   begin
      id 25
      name LeftFoot
      direction 0.000000 -0.258819 0.965926
      length 4.938895
      axis 15.0 0.0 0.0 xyz
      dof rx ry rz
   end
   begin
      id 26
      name LeftToeBase
      direction 0.000000 0.000000 1.000000
      length 2.952750
      axis 0.0 0.0 0.0 xyz
      dof rx ry rz
   end
   begin
      id 27
      name RightUpLeg
      direction 0.000000 -1.000000 0.000000
      length 15.713025
      axis 0.0 0.0 0.0 xyz
      dof rx ry rz
   end
   begin
      id 28
      name RightLeg
      direction 0.000000 -1.000000 0.000000
      length 14.435119
      axis 0.0 0.0 0.0 xyz
      dof rx ry rz
   end
   begin
      id 29
      name RightFoot
      direction 0.000000 -0.258819 0.965926
      length 4.938895
      axis 15.0 0.0 0.0 xyz
      dof rx ry rz
   end
   begin
      id 30
      name RightToeBase
      direction 0.000000 0.000000 1.000000
      length 2.952750
      axis 0.0 0.0 0.0 xyz
      dof rx ry rz
   end
:hierarchy
   begin
      root Spine_dum LeftUpLeg_dum RightUpLeg_dum
      Spine_dum Spine
      LeftUpLeg_dum LeftUpLeg
      RightUpLeg_dum RightUpLeg
      Spine Spine_dum1 Spine_dum2 Spine_dum3
      Spine_dum1 Head
      Spine_dum2 LeftShoulder
      Spine_dum3 RightShoulder
      LeftShoulder LeftArm
      LeftArm LeftForeArm
      LeftForeArm LeftHand
      LeftHand LeftHand_dum1 LeftHand_dum2
      LeftHand_dum1 LeftHandThumb1
      RightShoulder RightArm
      RightArm RightForeArm
      RightForeArm RightHand
      RightHand RightHand_dum1 RightHand_dum2
      RightHand_dum1 RightHandThumb1
      LeftUpLeg LeftLeg
      LeftLeg LeftFoot
      LeftFoot LeftToeBase
      RightUpLeg RightLeg
      RightLeg RightFoot
      RightFoot RightToeBase
   end

# File created by Blade
# Date/Time:  Tue Sep 23 19:22:32 2014
# Frame Rate: 120.000 fps
#------------------------------------------------------
:FULLY-SPECIFIED
:DEGREES
950
root 2.258152 35.523413 0.700460 115.651442 -2.857740 -54.936111
Spine -65.569293 3.918806 28.287341
Head -6.286183 27.690772 48.773996
LeftShoulder -15.895498 37.120347 37.967028
LeftArm 68.395986 -71.101716 -94.303079
LeftForeArm 56.120065 -0.000000 94.995412
LeftHand 15.976349 -0.000000 33.772201
LeftHandThumb1 -26.253704 0.000000 33.147579
RightShoulder -38.809794 -38.929831 7.804515
RightArm 46.339639 53.316333 89.567006
RightForeArm 102.406187 -0.000000 6.554768
RightHand 6.119477 -0.000000 26.918569
RightHandThumb1 -24.326973 -0.000000 -32.862282
LeftUpLeg -113.860797 50.091818 -20.238358
LeftLeg -3.691795 -0.000000 0.000000
LeftFoot -1.305033 -3.839483 -1.197314
LeftToeBase 6.056587 -0.000000 -0.000000
RightUpLeg -21.278587 -25.682841 -53.732629
RightLeg 92.477471 -0.000000 -0.000000
RightFoot 50.620664 28.378175 2.114195
RightToeBase 28.507089 -0.000000 -0.000000
951
root 2.253591 35.510953 0.703289 115.673812 -2.771469 -54.770108
Spine -65.613001 3.865256 28.292288
Head -6.396457 27.627505 48.689504
LeftShoulder -15.852397 36.912904 37.977816
LeftArm 68.858340 -71.169089 -94.824387
LeftForeArm 55.607699 -0.000000 95.345555
LeftHand 16.469735 0.000000 33.381296
LeftHandThumb1 -26.253704 0.000000 33.147579
RightShoulder -38.705970 -38.934490 7.700374
RightArm 46.297920 53.358322 89.491711
RightForeArm 102.494799 -0.000000 6.449147
RightHand 5.914162 0.000000 27.161039
RightHandThumb1 -24.326973 -0.000000 -32.862282
LeftUpLeg -113.559206 50.041380 -19.728056
LeftLeg -3.733965 -0.000000 0.000000
LeftFoot -1.217371 -3.549042 -0.711387
LeftToeBase 5.508462 -0.000000 -0.000000
RightUpLeg -21.161897 -25.588851 -53.764173
RightLeg 92.377177 -0.000000 -0.000000
RightFoot 50.629943 28.429601 2.232704
RightToeBase 28.712669 -0.000000 -0.000000
952
root 2.247437 35.495200 0.705481 115.675576 -2.671636 -54.606894
Spine -65.626217 3.794490 28.358520
Head -6.500300 27.593845 48.564222
LeftShoulder -15.835385 36.706069 37.981619
LeftArm 69.276049 -71.247243 -95.310996
LeftForeArm 55.145437 -0.000000 95.658792
LeftHand 16.856322 -0.000000 32.956330
LeftHandThumb1 -26.253704 0.000000 33.147579
RightShoulder -38.547371 -38.955008 7.551646
RightArm 46.324474 53.425410 89.484940
RightForeArm 102.494532 -0.000000 6.328419
RightHand 6.072679 -0.000000 27.000191
RightHandThumb1 -24.326973 -0.000000 -32.862282
LeftUpLeg -113.269920 49.984143 -19.228795
LeftLeg -3.767813 -0.000000 0.000000
LeftFoot -1.063236 -3.247087 -0.116619
LeftToeBase 4.644244 -0.000000 -0.000000
RightUpLeg -21.050858 -25.449481 -53.766584
RightLeg 92.271386 -0.000000 -0.000000
RightFoot 50.828706 28.327781 2.412385
RightToeBase 28.398185 -0.000000 -0.000000
953
root 2.237737 35.481358 0.706950 115.663599 -2.521108 -54.468189
Spine -65.619029 3.773145 28.394059
Head -6.636676 27.496203 48.463760
LeftShoulder -15.790062 36.615902 38.002056
LeftArm 69.990197 -71.271325 -96.039224
LeftForeArm 54.888326 -0.000000 95.923460
LeftHand 17.010010 -0.000000 32.731056
LeftHandThumb1 -26.253704 0.000000 33.147579
RightShoulder -38.432645 -38.880726 7.377237
RightArm 46.095710 53.473503 89.277364
RightForeArm 102.371476 -0.000000 6.267071
RightHand 6.104535 0.000000 27.026583
RightHandThumb1 -24.326973 -0.000000 -32.862282
LeftUpLeg -113.045762 49.982443 -18.765813
LeftLeg -3.787391 -0.000000 0.000000
LeftFoot -1.006611 -3.091639 0.280345
LeftToeBase 4.130424 -0.000000 -0.000000
RightUpLeg -20.990485 -25.242685 -53.691322
RightLeg 92.190920 -0.000000 -0.000000
RightFoot 50.744883 28.311615 2.361817
RightToeBase 28.498846 -0.000000 -0.000000
954
root 2.230044 35.464529 0.707321 115.638181 -2.376383 -54.252217
Spine -65.615281 3.685393 28.479500
Head -6.806783 27.475043 48.329547
LeftShoulder -15.805314 36.599336 37.992238
LeftArm 70.730552 -71.270841 -96.771635
LeftForeArm 54.721554 0.000000 96.138012
LeftHand 17.101046 0.000000 32.585665
LeftHandThumb1 -26.253704 0.000000 33.147579
RightShoulder -38.333423 -38.865232 7.252658
RightArm 45.926076 53.483053 89.071255
RightForeArm 102.237242 0.000000 6.238935
RightHand 6.106344 -0.000000 26.851101
RightHandThumb1 -24.326973 -0.000000 -32.862282
LeftUpLeg -112.714469 49.895272 -18.186827
LeftLeg -3.871983 -0.000000 0.000000
LeftFoot -0.844805 -2.790460 0.951672
LeftToeBase 3.386241 -0.000000 -0.000000
RightUpLeg -20.836789 -25.026844 -53.626389
RightLeg 92.084046 -0.000000 -0.000000
RightFoot 50.656893 28.312911 2.269865
RightToeBase 28.662619 -0.000000 -0.000000
955
root 2.222737 35.449734 0.707135 115.654355 -2.260293 -54.093407
Spine -65.631827 3.651603 28.455127
Head -7.037872 27.433312 48.205029
LeftShoulder -15.804100 36.608402 38.020601
LeftArm 71.668129 -71.210628 -97.650022
LeftForeArm 54.702910 0.000000 96.275372
LeftHand 17.128232 0.000000 32.550091
LeftHandThumb1 -26.253704 0.000000 33.147579
RightShoulder -38.286981 -38.870219 7.164715
RightArm 45.859429 53.583672 89.044813
RightForeArm 101.848300 0.000000 6.234725
RightHand 6.105809 -0.000000 26.741854
RightHandThumb1 -24.326973 -0.000000 -32.862282
LeftUpLeg -112.553858 49.789382 -17.863608
LeftLeg -3.995845 -0.000000 0.000000
LeftFoot -0.710797 -2.554613 1.511128
LeftToeBase 2.853499 -0.000000 -0.000000
RightUpLeg -20.779592 -24.786380 -53.572398
RightLeg 92.003739 -0.000000 -0.000000
RightFoot 50.617646 28.274198 2.242415
RightToeBase 28.866531 -0.000000 -0.000000
956
root 2.211023 35.436106 0.707211 115.644925 -2.115792 -53.926694
Spine -65.632747 3.609620 28.459400
Head -7.258364 27.418133 48.096015
LeftShoulder -15.805116 36.686882 38.014176
LeftArm 72.848078 -71.157074 -98.690871
LeftForeArm 54.616072 -0.000000 96.342456
LeftHand 17.213809 -0.000000 32.561351
LeftHandThumb1 -26.253704 0.000000 33.147579
RightShoulder -38.310398 -38.901406 7.142584
RightArm 45.723620 53.543556 88.870004
RightForeArm 101.576905 -0.000000 6.259317
RightHand 6.074042 -0.000000 26.626074
RightHandThumb1 -24.326973 -0.000000 -32.862282
LeftUpLeg -112.388989 49.681937 -17.553168
LeftLeg -4.185189 -0.000000 0.000000
LeftFoot -0.498986 -2.339396 2.039029
LeftToeBase 2.331758 -0.000000 -0.000000
RightUpLeg -20.716109 -24.500601 -53.468904
RightLeg 91.918026 -0.000000 -0.000000
RightFoot 50.564070 28.308486 2.107342
RightToeBase 28.882901 -0.000000 -0.000000
957
root 2.197792 35.422687 0.706552 115.616159 -1.977646 -53.771572
Spine -65.621033 3.557291 28.432286
Head -7.478513 27.405297 48.053770
LeftShoulder -15.796291 36.737339 38.054591
LeftArm 73.693564 -71.086877 -99.380610
LeftForeArm 54.450124 0.000000 96.393956
LeftHand 17.289273 0.000000 32.551377
LeftHandThumb1 -26.253704 0.000000 33.147579
RightShoulder -38.353929 -39.023401 7.198540
RightArm 45.724787 53.539950 88.851106
RightForeArm 101.305675 -0.000000 6.325318
RightHand 6.275748 0.000000 26.528237
RightHandThumb1 -24.326973 -0.000000 -32.862282
LeftUpLeg -112.153417 49.593636 -17.211052
LeftLeg -4.417142 -0.000000 0.000000
LeftFoot -0.110509 -2.057213 2.697858
LeftToeBase 1.181257 -0.000000 -0.000000
RightUpLeg -20.650551 -24.169850 -53.375484
RightLeg 91.847248 -0.000000 -0.000000
RightFoot 50.573589 28.201229 2.142360
RightToeBase 28.766729 -0.000000 -0.000000
958
root 2.184916 35.409592 0.705864 115.599549 -1.828983 -53.625303
Spine -65.616731 3.529572 28.387389
Head -7.694060 27.356627 48.023729
LeftShoulder -15.774561 36.757283 38.118518
LeftArm 74.314966 -71.001290 -99.806145
LeftForeArm 54.302977 -0.000000 96.396531
LeftHand 17.323310 -0.000000 32.585090
LeftHandThumb1 -26.253704 0.000000 33.147579
RightShoulder -38.420145 -39.111896 7.245151
RightArm 45.766896 53.571255 88.863284
RightForeArm 101.043230 -0.000000 6.265643
RightHand 6.329318 -0.000000 26.494089
RightHandThumb1 -24.326973 -0.000000 -32.862282
LeftUpLeg -111.874036 49.514954 -16.808368
LeftLeg -4.671314 -0.000000 0.000000
LeftFoot 0.130182 -1.733196 3.306067
LeftToeBase 0.676753 -0.000000 -0.000000
RightUpLeg -20.613520 -23.828238 -53.246507
RightLeg 91.779681 -0.000000 -0.000000
RightFoot 50.497735 28.196546 2.040923
RightToeBase 28.935473 -0.000000 -0.000000
959
root 2.176206 35.391456 0.702605 115.575800 -1.685379 -53.373377
Spine -65.643219 3.440918 28.389074
Head -7.919650 27.267494 47.925689
LeftShoulder -15.715676 36.728942 38.200806
LeftArm 74.513053 -70.963874 -99.814137
LeftForeArm 54.159504 0.000000 96.376641
LeftHand 17.186716 -0.000000 32.674689
LeftHandThumb1 -26.253704 0.000000 33.147579
RightShoulder -38.453592 -39.168813 7.213001
RightArm 45.650879 53.513448 88.698883
RightForeArm 100.968007 -0.000000 6.162187
RightHand 6.417208 -0.000000 26.401033
RightHandThumb1 -24.326973 -0.000000 -32.862282
LeftUpLeg -111.423582 49.360154 -16.167992
LeftLeg -4.953772 -0.000000 0.000000
LeftFoot 0.438511 -1.268488 4.056506
LeftToeBase 0.004740 -0.000000 -0.000000
RightUpLeg -20.451833 -23.556307 -53.141050
RightLeg 91.669731 -0.000000 -0.000000
RightFoot 50.570404 28.166496 2.091874
RightToeBase 28.740089 -0.000000 -0.000000
960
root 2.162701 35.372735 0.700932 115.504730 -1.565187 -53.203544
Spine -65.602948 3.357577 28.342211
Head -8.145755 27.220728 47.898871
LeftShoulder -15.702338 36.665073 38.330263
LeftArm 74.624913 -70.862077 -99.749477
LeftForeArm 53.906440 -0.000000 96.337729
LeftHand 17.251086 -0.000000 32.706902
LeftHandThumb1 -26.253704 0.000000 33.147579
RightShoulder -38.526657 -39.213349 7.248126
RightArm 45.630420 53.436878 88.559571
RightForeArm 100.864432 0.000000 6.007030
RightHand 6.629762 -0.000000 26.578236
RightHandThumb1 -24.326973 -0.000000 -32.862282
LeftUpLeg -110.963327 49.282174 -15.619285
LeftLeg -5.243616 -0.000000 0.000000
LeftFoot 0.837127 -0.912916 4.810550
LeftToeBase -1.134354 -0.000000 0.000000
RightUpLeg -20.325627 -23.197516 -53.066419
RightLeg 91.605770 -0.000000 -0.000000
RightFoot 50.465368 28.149060 2.032496
RightToeBase 28.885153 -0.000000 -0.000000
961
root 2.146161 35.350208 0.698998 115.375893 -1.427253 -53.006489
Spine -65.512577 3.248228 28.335218
Head -8.392330 27.182816 47.808556
LeftShoulder -15.666771 36.512847 38.489382
LeftArm 74.401655 -70.806414 -99.410030
LeftForeArm 53.551347 -0.000000 96.332872
LeftHand 17.376958 -0.000000 32.566391
LeftHandThumb1 -26.253704 0.000000 33.147579
RightShoulder -38.584284 -39.188727 7.209956
RightArm 45.581688 53.437175 88.438350
RightForeArm 100.715571 -0.000000 5.860328
RightHand 6.608569 0.000000 26.809844
RightHandThumb1 -24.326973 -0.000000 -32.862282
LeftUpLeg -110.397588 49.228391 -14.965344
LeftLeg -5.543690 -0.000000 0.000000
LeftFoot 1.058264 -0.581929 5.313516
LeftToeBase -1.617013 -0.000000 0.000000
RightUpLeg -20.118045 -22.793634 -52.971795
RightLeg 91.517291 -0.000000 -0.000000
RightFoot 50.451252 28.030196 2.091970
RightToeBase 29.073970 -0.000000 -0.000000
962
root 2.131329 35.327913 0.696001 115.218409 -1.307914 -52.811576
Spine -65.395062 3.116657 28.319161
Head -8.633520 27.193184 47.726031
LeftShoulder -15.621435 36.360859 38.667551
LeftArm 74.123070 -70.760028 -99.060810
LeftForeArm 53.167200 -0.000000 96.327971
LeftHand 17.539759 0.000000 32.434207
LeftHandThumb1 -26.253704 0.000000 33.147579
RightShoulder -38.601147 -39.153095 7.153197
RightArm 45.311644 53.344751 88.074761
RightForeArm 100.770481 -0.000000 5.703334
RightHand 6.541588 0.000000 26.635948
RightHandThumb1 -24.326973 -0.000000 -32.862282
LeftUpLeg -109.829228 49.157341 -14.337452
LeftLeg -5.829627 -0.000000 0.000000
LeftFoot 1.221682 -0.289463 6.036809
LeftToeBase -1.992870 -0.000000 0.000000
RightUpLeg -19.889198 -22.376679 -52.902059
RightLeg 91.430761 -0.000000 -0.000000
RightFoot 50.474767 27.924771 2.140126
RightToeBase 28.915942 -0.000000 -0.000000
